<?xml version="1.0" encoding="UTF-8" standalone="no"?>
<svg width="56px" height="88px" viewBox="0 0 56 88" version="1.1" xmlns="http://www.w3.org/2000/svg" xmlns:xlink="http://www.w3.org/1999/xlink" xmlns:sketch="http://www.bohemiancoding.com/sketch/ns">
    <!-- Generator: Sketch 3.2 (9961) - http://www.bohemiancoding.com/sketch -->
    <title>Fill 19 + Fill 18</title>
    <desc>Created with Sketch.</desc>
    <defs></defs>
    <g id="Page-1" stroke="none" stroke-width="1" fill="none" fill-rule="evenodd" sketch:type="MSPage">
        <g id="Fill-19-+-Fill-18" sketch:type="MSLayerGroup" fill="#FFFFFF">
            <path d="M55.4822393,1.43825051 L53.8884178,0.752298895 C53.4436304,0.560474285 52.8821954,0.87157093 52.6396336,1.44979296 L50.5470615,6.4059033 C50.3066801,6.98357569 50.4691147,7.60631863 50.9171726,7.79759359 L52.510449,8.48244593 C52.959052,8.67482018 53.5188518,8.36097533 53.7597783,7.78330294 L55.8534406,2.82939116 C56.0981827,2.25171877 55.9302972,1.62897584 55.4822393,1.43825051" id="Fill-19" sketch:type="MSShapeGroup"></path>
            <path d="M52.5535106,10.9288968 L48.9232605,9.37011568 C47.903956,8.93534988 46.6687989,9.55149712 46.1635073,10.748065 L41.8219244,21.0417363 C41.3155427,22.2399531 41.7303506,23.5634879 42.749655,24.0010019 L42.8101592,24.0284839 L35.5251303,40.9414784 L26.5258167,37.1258726 C27.0986985,35.6346973 27.8394657,33.9945694 28.672897,32.3423494 L29.9026033,36.3168014 L30.5327188,36.1167322 C30.5327188,36.1167322 30.3190464,29.72551 34.2332846,23.3876029 L32.8792994,23.1649984 C31.8169334,24.3434281 24.6447366,32.1279895 22.245283,37.4116857 C20.0616822,42.213347 22.3684717,46.9902745 25.861361,48.8326702 C28.8658562,50.4216815 32.7228607,49.3773641 33.7127307,49.0662675 C33.8032144,49.0387855 33.8708046,49.0162502 33.9111407,49.0025092 L32.6318319,45.2204314 C31.8430974,45.4958014 29.201082,46.0916119 27.6988344,45.2979307 C26.3023328,44.5614122 25.4470982,43.0048297 25.5108729,41.0305202 L39.2404133,46.8473679 C39.6862908,47.036994 39.8830656,47.4662634 39.9604674,47.7059067 C40.1272626,48.2143244 40.0891069,48.8288227 39.8547213,49.3889066 L34.9833182,61.0814135 L31.0718055,59.7216024 C29.7963122,57.4048668 27.4170267,55.4629861 24.3825519,54.5654229 C21.7487128,53.7821848 19.1116032,53.9371835 16.945445,54.8105626 L12.9281863,53.4166738 L20.6841665,34.8921327 C19.9804649,34.8179312 19.262046,34.8899341 18.5512583,35.1130883 C16.8473301,35.6495376 15.4464678,36.9697746 14.7106063,38.7341213 L1.15712763,71.2563625 C0.552631031,72.7090629 0.477409633,74.2964253 0.939094591,75.7243919 C1.42966893,77.2359038 2.50402672,78.439617 3.88962668,79.0244347 L22.5401727,86.9266193 C23.6695839,87.4064556 24.9041959,87.4592212 26.1137342,87.0761216 C27.8176624,86.5402219 29.2174345,85.2216338 29.9516608,83.4572871 L43.5045944,50.9355956 C44.1101812,49.4823455 44.1908534,47.8955328 43.7253529,46.4670165 C43.238049,44.9566039 42.1598756,43.7528907 40.7742757,43.1658744 L39.1766386,42.4892667 L46.458397,25.5834175 C47.4597137,25.9571732 48.6463585,25.3481713 49.1385681,24.182933 L53.4823313,13.8909106 C53.988713,12.6915945 53.5717248,11.36751 52.5535106,10.9288968 L52.5535106,10.9288968 Z M18.4635,65.1855808 L18.6826232,64.6381386 L20.1287273,65.2273535 L19.8910713,65.8182172 C19.7215506,66.2436391 19.8540057,66.5464912 20.285166,66.7207273 L20.5413549,66.8229605 C20.9234578,66.9796081 21.1998146,66.8438468 21.3682452,66.4184249 L22.0904796,64.6090077 C22.1716969,64.4072895 22.1875043,64.2528405 22.1340862,64.1528059 C22.0828484,64.0483741 21.9896393,63.9038186 21.8511883,63.7180401 L20.7899125,62.3851613 C20.5533467,62.0998978 20.3865514,61.8772933 20.2960677,61.7096529 C20.2061291,61.544211 20.1657929,61.3595317 20.1772397,61.1578136 C20.1865061,60.9549962 20.2491906,60.7126046 20.3603874,60.4300893 L21.2744909,58.14963 C21.762885,56.9239312 22.568517,56.5270906 23.6913872,56.9574592 L24.1536172,55.804313 L25.1925446,56.2286357 L24.7319498,57.380133 C25.8253855,57.8610686 26.1284515,58.7080649 25.6444181,59.9222213 L25.2181635,60.9885243 L23.7715143,60.4009583 L24.1536172,59.4445835 C24.3280436,59.0076191 24.2037648,58.7025685 23.782416,58.5327295 L23.5545714,58.4398403 C23.1446693,58.2738488 22.85196,58.4085107 22.6780786,58.8421773 L21.9373114,60.6972147 C21.855549,60.9005817 21.8402867,61.0539315 21.8926146,61.1545158 C21.9460327,61.2600468 22.0381517,61.403503 22.1744223,61.5887319 L23.2498703,62.8913804 C23.4831656,63.1870871 23.643965,63.4069434 23.7311782,63.5536975 C23.8173013,63.7004516 23.8674488,63.8565495 23.8838013,64.0208921 C23.9006989,64.1896318 23.8314734,64.4650018 23.6777601,64.848651 L22.766382,67.1285607 C22.2899798,68.3234796 21.492524,68.7120756 20.3745596,68.2943487 L19.9134197,69.4491438 L18.8739472,69.0259205 L19.3356322,67.8716749 C18.2274792,67.3984343 17.9374953,66.5030696 18.4635,65.1855808 L18.4635,65.1855808 Z M26.3006976,81.9105981 C26.0243407,82.5773123 25.5108729,83.0824321 24.930905,83.2665618 C24.6223882,83.3616496 24.3340396,83.3550539 24.0745802,83.2445761 L5.4234891,75.3434908 C4.97979186,75.156613 4.7813818,74.7229465 4.70452515,74.4855017 C4.53827496,73.9748855 4.57861107,73.3620361 4.81081626,72.8025018 L8.8651406,63.1211302 L12.4757677,64.3748607 C13.5255968,67.1890212 16.1578006,69.643167 19.6833949,70.6896829 C22.8132591,71.6169268 25.9463939,71.2266819 28.2886138,69.8729168 L30.9338996,70.793565 L26.3006976,81.9105981 L26.3006976,81.9105981 Z M49.7970279,15.0275676 C48.8900104,15.3133807 47.9279397,14.8033142 47.6444967,13.8920099 C47.362689,12.9796063 47.8658002,12.0072918 48.7733628,11.7220283 C49.678745,11.4356655 50.642451,11.9446328 50.9242587,12.8603342 C51.209882,13.7710889 50.7029551,14.7434033 49.7970279,15.0275676 L49.7970279,15.0275676 Z" id="Fill-18" sketch:type="MSShapeGroup"></path>
        </g>
    </g>
</svg>