<?xml version="1.0" encoding="UTF-8" standalone="no"?>
<svg width="182px" height="25px" viewBox="0 0 182 25" version="1.1" xmlns="http://www.w3.org/2000/svg" xmlns:xlink="http://www.w3.org/1999/xlink" xmlns:sketch="http://www.bohemiancoding.com/sketch/ns">
    <!-- Generator: Sketch 3.0.4 (8054) - http://www.bohemiancoding.com/sketch -->
    <title>Imported Layers 3</title>
    <desc>Created with Sketch.</desc>
    <defs></defs>
    <g id="Page-1" stroke="none" stroke-width="1" fill="none" fill-rule="evenodd" sketch:type="MSPage">
        <g id="Imported-Layers-3" sketch:type="MSLayerGroup" transform="translate(0.000000, 1.000000)">
            <path d="M13.066872,0.738909091 L11.104912,0.738909091 L11.104912,7.912 L2.216032,7.912 L2.216032,0.738909091 L0.254072,0.738909091 L0.254072,17.5978182 L2.216032,17.5978182 L2.216032,9.66472727 L11.104912,9.66472727 L11.104912,17.5978182 L13.066872,17.5978182 L13.066872,0.738909091" id="Fill-1" fill="#96A2C0" sketch:type="MSShapeGroup"></path>
            <path d="M19.912984,16.2487273 C19.158048,16.2487273 18.572008,16.0683636 18.15268,15.7076364 C17.732624,15.3454545 17.523688,14.8189091 17.523688,14.1272727 C17.523688,13.2429091 17.860024,12.5912727 18.533424,12.1723636 C19.206824,11.7534545 20.305376,11.5170909 21.82908,11.4632727 L23.745176,11.3825455 L23.745176,12.5243636 C23.745176,13.7003636 23.404472,14.6152727 22.723792,15.2683636 C22.042384,15.9221818 21.105448,16.2487273 19.912984,16.2487273 M21.21756,4.75127273 C20.470632,4.75127273 19.726616,4.848 18.983328,5.04 C18.241496,5.232 17.557904,5.49745455 16.934736,5.83563636 L17.523688,7.30036364 C18.854472,6.65454545 20.047664,6.33163636 21.101808,6.33163636 C22.0402,6.33163636 22.723792,6.568 23.151128,7.04145455 C23.577736,7.51418182 23.791768,8.24581818 23.791768,9.23781818 L23.791768,10.0218182 L21.644168,10.0909091 C17.557904,10.2138182 15.514408,11.552 15.514408,14.104 C15.514408,15.2952727 15.871128,16.2145455 16.582384,16.8603636 C17.294368,17.5054545 18.277168,17.8290909 19.53224,17.8290909 C20.470632,17.8290909 21.25396,17.6887273 21.881496,17.408 C22.508304,17.128 23.137296,16.5905455 23.767744,15.7992727 L23.8602,15.7992727 L24.241672,17.5978182 L25.661272,17.5978182 L25.661272,8.97236364 C25.661272,7.49672727 25.298,6.424 24.570728,5.75490909 C23.843456,5.08654545 22.725976,4.75127273 21.21756,4.75127273" id="Fill-2" fill="#96A2C0" sketch:type="MSShapeGroup"></path>
            <path d="M38.521392,4.95927273 L36.466976,4.95927273 C34.69648,9.84872727 33.652528,12.7687273 33.332936,13.7170909 C33.014072,14.6676364 32.80368,15.3381818 32.703944,15.7301818 L32.611488,15.7301818 C32.465888,15 32.088056,13.8123636 31.480176,12.1672727 L28.710136,4.95927273 L26.654992,4.95927273 L31.757544,17.6676364 L31.05284,19.4661818 C30.491552,20.9425455 29.552432,21.68 28.236936,21.68 C27.712776,21.68 27.239576,21.6349091 26.816608,21.5418182 L26.816608,23.0763636 C27.385904,23.2065455 27.963208,23.2712727 28.54852,23.2712727 C29.594656,23.2712727 30.47772,22.9738182 31.196984,22.3781818 C31.916976,21.7818182 32.545968,20.7730909 33.084688,19.3505455 L38.521392,4.95927273" id="Fill-3" fill="#96A2C0" sketch:type="MSShapeGroup"></path>
            <path d="M62.310976,1.84945455 C60.287136,1.84945455 57.225896,2.82836364 57.054816,2.88363636 C56.848064,2.97527273 52.471328,3.20727273 51.442664,3.26109091 L51.442664,12.8254545 L51.581712,12.9716364 L54.233088,10.3781818 C54.50536,10.3229091 54.72376,10.3010909 54.929056,10.3010909 C56.56196,10.3010909 57.021328,11.8058182 57.123976,12.2843636 C57.257928,12.2712727 57.385328,12.2610909 57.510544,12.2610909 C59.444112,12.2610909 59.84888,13.8094545 59.929688,14.3381818 C60.199776,14.2829091 60.45676,14.2530909 60.695544,14.2530909 C62.468952,14.2530909 62.872992,15.7447273 62.960352,16.2443636 C63.154728,16.2152727 63.33964,16.2 63.515088,16.2 C64.182664,16.2 64.714104,16.4109091 65.09412,16.8305455 C65.859976,17.6690909 65.740584,19.0269091 65.735488,19.0843636 L63.100128,21.8087273 C63.46704,22.0050909 63.818664,22.1025455 64.142624,22.1025455 C65.445016,22.1025455 66.00776,20.5061818 66.014312,20.4894545 L66.060176,20.3658182 L66.183936,20.3890909 C66.40088,20.4269091 66.601808,20.4501818 66.794728,20.4501818 C68.552848,20.4501818 68.64676,18.7912727 68.649672,18.7214545 L68.65768,18.5367273 L68.835312,18.5825455 C69.18912,18.6749091 69.518904,18.7214545 69.816656,18.7214545 C71.64976,18.7214545 71.836128,16.9963636 71.84268,16.9236364 L71.85724,16.7614545 L72.012304,16.792 C72.283848,16.8421818 72.54156,16.8690909 72.770152,16.8690909 C73.383128,16.8690909 73.838128,16.6872727 74.130784,16.3287273 C74.697168,15.6392727 74.497696,14.5025455 74.486048,14.4385455 C74.005568,12.5301818 67.901288,7.91781818 67.042248,7.27563636 C64.6282,9.55563636 62.762336,10.4116364 62.682256,10.4472727 C62.307336,10.5621818 61.87272,10.6247273 61.422088,10.6247273 C60.848424,10.6247273 60.378136,10.528 60.146632,10.4472727 C59.679256,10.2843636 58.882824,9.51418182 58.53848,8.896 C58.183944,8.25890909 58.493344,7.29236364 58.507904,7.25236364 L63.810656,2.22690909 C63.557312,1.97454545 63.052808,1.84945455 62.310976,1.84945455" id="Fill-4" fill="#96A2C0" sketch:type="MSShapeGroup"></path>
            <path d="M46.502456,17.2189091 C46.011784,17.2189091 45.614296,16.8210909 45.614296,16.3323636 C45.614296,15.8414545 46.011784,15.4443636 46.502456,15.4450909 C46.993128,15.4450909 47.390616,15.8421818 47.390616,16.3323636 C47.390616,16.8210909 46.993128,17.2189091 46.502456,17.2189091 M49.504,0.727272727 L43.725136,0.727272727 L37.384984,18.1818182 L49.504,18.1818182 L49.504,0.727272727" id="Fill-5" fill="#96A2C0" sketch:type="MSShapeGroup"></path>
            <path d="M175.643832,13.1818182 L175.643832,12.5592727 C175.643832,11.6589091 175.782152,10.92 176.05952,10.3396364 C176.33616,9.75854545 176.851584,9.14545455 177.605792,8.49963636 C178.651928,7.616 179.312952,6.95054545 179.585952,6.50472727 C179.858952,6.05890909 179.995088,5.52072727 179.995088,4.89090909 C179.995088,4.10618182 179.7432,3.50036364 179.239424,3.07418182 C178.735648,2.648 178.009832,2.43418182 177.063432,2.43418182 C176.455552,2.43418182 175.86296,2.50545455 175.285656,2.648 C174.708352,2.78981818 174.0466,3.04872727 173.3004,3.42618182 L172.618992,1.86909091 C174.073536,1.10836364 175.592872,0.727272727 177.178456,0.727272727 C178.648288,0.727272727 179.791248,1.08872727 180.607336,1.81090909 C181.422696,2.53381818 181.831104,3.55272727 181.831104,4.86690909 C181.831104,5.42909091 181.755392,5.92218182 181.606152,6.34981818 C181.455456,6.77527273 181.234144,7.17890909 180.942216,7.56 C180.64956,7.94036364 180.018384,8.55418182 179.048688,9.39927273 C178.271912,10.0603636 177.757944,10.6101818 177.507512,11.048 C177.25708,11.4865455 177.132592,12.0712727 177.132592,12.8014545 L177.132592,13.1818182 L175.643832,13.1818182 L175.643832,13.1818182 Z M175.077448,16.6065455 C175.077448,15.5607273 175.539728,15.0385455 176.46356,15.0385455 C176.909824,15.0385455 177.25344,15.1730909 177.495864,15.4414545 C177.738288,15.7105455 177.859864,16.0996364 177.859864,16.6065455 C177.859864,17.0989091 177.736832,17.4814545 177.490768,17.7541818 C177.243976,18.0269091 176.901088,18.1636364 176.46356,18.1636364 C176.062432,18.1636364 175.73192,18.0429091 175.46984,17.8007273 C175.209216,17.5585455 175.077448,17.1607273 175.077448,16.6065455 L175.077448,16.6065455 Z" id="Fill-6" fill="#FFFFFF" sketch:type="MSShapeGroup"></path>
            <path d="M98.764848,17.5978182 L96.66384,12.2356364 L89.899264,12.2356364 L87.82228,17.5978182 L85.836296,17.5978182 L92.508416,0.669818182 L94.158792,0.669818182 L100.796696,17.5978182 L98.764848,17.5978182 L98.764848,17.5978182 Z M96.051592,10.4712727 L94.089632,5.248 C93.83556,4.58690909 93.57348,3.77527273 93.304848,2.81454545 C93.135952,3.55272727 92.8928,4.36363636 92.577576,5.248 L90.591592,10.4712727 L96.051592,10.4712727 L96.051592,10.4712727 Z" id="Fill-7" fill="#FFFFFF" sketch:type="MSShapeGroup"></path>
            <path d="M106.938104,17.8290909 C105.106456,17.8290909 103.68904,17.2654545 102.685128,16.1389091 C101.680488,15.0130909 101.178168,13.4196364 101.178168,11.3592727 C101.178168,9.24581818 101.688496,7.61236364 102.707696,6.45890909 C103.726896,5.30545455 105.179984,4.72872727 107.064776,4.72872727 C107.672656,4.72872727 108.281264,4.79418182 108.889144,4.92436364 C109.497024,5.05527273 109.973864,5.20945455 110.320392,5.38618182 L109.73144,7.01236364 C109.308472,6.84290909 108.84692,6.70254545 108.346784,6.59054545 C107.846648,6.48 107.404024,6.424 107.018912,6.424 C104.449072,6.424 103.164152,8.06109091 103.164152,11.3367273 C103.164152,12.8894545 103.477192,14.0807273 104.104728,14.9112727 C104.731536,15.7418182 105.661192,16.1570909 106.89224,16.1570909 C107.946384,16.1570909 109.028192,15.9301818 110.13548,15.4763636 L110.13548,17.1716364 C109.289544,17.6094545 108.223024,17.8290909 106.938104,17.8290909" id="Fill-8" fill="#FFFFFF" sketch:type="MSShapeGroup"></path>
            <path d="M113.991696,4.95927273 L113.991696,13.1585455 C113.991696,14.1890909 114.226112,14.9570909 114.6964,15.4647273 C115.165232,15.9723636 115.900512,16.2254545 116.900784,16.2254545 C118.224288,16.2254545 119.193256,15.8654545 119.804048,15.1418182 C120.415568,14.4189091 120.721328,13.2392727 120.721328,11.6014545 L120.721328,4.95927273 L122.638152,4.95927273 L122.638152,17.5978182 L121.056936,17.5978182 L120.779568,15.9032727 L120.676192,15.9032727 C120.2838,16.5258182 119.739256,17.0029091 119.041832,17.3330909 C118.345864,17.6632727 117.551616,17.8290909 116.65836,17.8290909 C115.119368,17.8290909 113.966944,17.464 113.201088,16.7330909 C112.435232,16.0029091 112.053032,14.8341818 112.053032,13.2276364 L112.053032,4.95927273 L113.991696,4.95927273" id="Fill-9" fill="#FFFFFF" sketch:type="MSShapeGroup"></path>
            <path d="M131.100424,17.8290909 C129.230192,17.8290909 127.753808,17.2596364 126.673456,16.1221818 C125.592376,14.9847273 125.050744,13.4050909 125.050744,11.3825455 C125.050744,9.34545455 125.553792,7.72727273 126.558432,6.52727273 C127.562344,5.328 128.9106,4.72872727 130.6032,4.72872727 C132.188784,4.72872727 133.443128,5.25018182 134.36696,6.29090909 C135.290064,7.33309091 135.752344,8.70763636 135.752344,10.4138182 L135.752344,11.6247273 L127.037456,11.6247273 C127.07604,13.1083636 127.450232,14.2349091 128.162216,15.0036364 C128.8742,15.7723636 129.876656,16.1570909 131.169584,16.1570909 C132.531672,16.1570909 133.877744,15.872 135.209984,15.3032727 L135.209984,17.0101818 C134.532216,17.3025455 133.891576,17.5112727 133.288064,17.6385455 C132.683824,17.7658182 131.954368,17.8290909 131.100424,17.8290909 L131.100424,17.8290909 Z M130.580632,6.33163636 C129.565072,6.33163636 128.754808,6.66181818 128.150568,7.32363636 C127.546328,7.984 127.191064,8.89890909 127.082592,10.0683636 L133.6972,10.0683636 C133.6972,8.86109091 133.42784,7.93672727 132.88912,7.29454545 C132.351128,6.65236364 131.580904,6.33163636 130.580632,6.33163636 L130.580632,6.33163636 Z" id="Fill-10" fill="#FFFFFF" sketch:type="MSShapeGroup"></path>
            <path d="M143.844792,4.72872727 C144.40608,4.72872727 144.910584,4.77454545 145.356848,4.86690909 L145.091856,6.64363636 C144.567696,6.52727273 144.106144,6.46981818 143.705744,6.46981818 C142.682904,6.46981818 141.807848,6.88509091 141.080576,7.71563636 C140.353304,8.54618182 139.989304,9.57963636 139.989304,10.8174545 L139.989304,17.5978182 L138.073208,17.5978182 L138.073208,4.95927273 L139.654424,4.95927273 L139.87428,7.30036364 L139.966736,7.30036364 C140.435568,6.47781818 141.001952,5.84363636 141.662976,5.39781818 C142.325456,4.952 143.052,4.72872727 143.844792,4.72872727" id="Fill-11" fill="#FFFFFF" sketch:type="MSShapeGroup"></path>
            <path d="M155.388688,15.9032727 L155.285312,15.9032727 C154.400064,17.1876364 153.07656,17.8290909 151.3148,17.8290909 C149.659328,17.8290909 148.372952,17.264 147.45276,16.1338182 C146.533296,15.0036364 146.0732,13.3970909 146.0732,11.3134545 C146.0732,9.22981818 146.53548,7.61236364 147.458584,6.45890909 C148.382416,5.30545455 149.667336,4.72872727 151.3148,4.72872727 C153.029968,4.72872727 154.346192,5.35127273 155.262016,6.59636364 L155.411984,6.59636364 L155.331176,5.68581818 L155.285312,4.79854545 L155.285312,-0.345454545 L157.201408,-0.345454545 L157.201408,17.5978182 L155.64276,17.5978182 L155.388688,15.9032727 L155.388688,15.9032727 Z M151.556496,16.2254545 C152.863984,16.2254545 153.813296,15.8705455 154.402248,15.1592727 C154.990472,14.448 155.285312,13.3010909 155.285312,11.7170909 L155.285312,11.3134545 C155.285312,9.52290909 154.98756,8.24436364 154.389872,7.47927273 C153.794368,6.71418182 152.841416,6.33163636 151.5332,6.33163636 C150.409896,6.33163636 149.550128,6.76872727 148.953168,7.64072727 C148.356936,8.51272727 148.059184,9.74472727 148.059184,11.3367273 C148.059184,12.9512727 148.35548,14.1694545 148.948072,14.9912727 C149.539936,15.8145455 150.409896,16.2254545 151.556496,16.2254545 L151.556496,16.2254545 Z" id="Fill-12" fill="#FFFFFF" sketch:type="MSShapeGroup"></path>
            <path d="M171.238704,11.2669091 C171.238704,13.328 170.71964,14.936 169.680056,16.0930909 C168.6412,17.2501818 167.206312,17.8290909 165.374664,17.8290909 C164.243352,17.8290909 163.238712,17.5636364 162.361472,17.0334545 C161.484232,16.5025455 160.807192,15.7418182 160.330352,14.7498182 C159.852784,13.7585455 159.614728,12.5970909 159.614728,11.2669091 C159.614728,9.20727273 160.130152,7.60218182 161.161,6.45309091 C162.192576,5.30327273 163.623824,4.72872727 165.454744,4.72872727 C167.22524,4.72872727 168.631736,5.31636364 169.674232,6.49309091 C170.717456,7.66909091 171.238704,9.26036364 171.238704,11.2669091 L171.238704,11.2669091 Z M161.599984,11.2669091 C161.599984,12.8821818 161.923216,14.112 162.570408,14.9570909 C163.216144,15.8029091 164.166912,16.2254545 165.421256,16.2254545 C166.674872,16.2254545 167.627824,15.8050909 168.2772,14.9629091 C168.928032,14.1214545 169.25272,12.8894545 169.25272,11.2669091 C169.25272,9.66036364 168.928032,8.44 168.2772,7.60581818 C167.627824,6.77236364 166.667592,6.35490909 165.397232,6.35490909 C164.143616,6.35490909 163.197216,6.76654545 162.558032,7.58836364 C161.918848,8.41090909 161.599984,9.63781818 161.599984,11.2669091 L161.599984,11.2669091 Z" id="Fill-13" fill="#FFFFFF" sketch:type="MSShapeGroup"></path>
            <path d="M56.010136,11.4698182 L55.988296,11.4487273 C55.731312,11.1970909 55.389152,11.0581818 55.025152,11.0581818 C54.648776,11.0581818 54.299336,11.2043636 54.037984,11.4705455 L51.759344,13.7803636 C51.227904,14.3236364 51.237368,15.1970909 51.781912,15.7272727 L51.803752,15.7483636 C52.062192,16.0014545 52.403624,16.1396364 52.768352,16.1396364 C53.144728,16.1396364 53.494168,15.9934545 53.75552,15.7272727 L56.033432,13.4167273 C56.564144,12.8763636 56.556136,12.0014545 56.010136,11.4698182" id="Fill-14" fill="#FFFFFF" sketch:type="MSShapeGroup"></path>
            <path d="M58.788912,13.5098182 C58.530472,13.2574545 58.18904,13.1185455 57.82504,13.1185455 C57.449392,13.1185455 57.099224,13.2647273 56.837144,13.5309091 L54.55996,15.8414545 C54.02852,16.3832727 54.037984,17.2574545 54.583256,17.7883636 L54.605096,17.8087273 C54.862808,18.0610909 55.204968,18.2 55.568968,18.2 C55.944616,18.2 56.294784,18.0545455 56.556136,17.7883636 L58.834048,15.4770909 C59.365488,14.9352727 59.354568,14.0610909 58.81148,13.5309091 L58.788912,13.5098182" id="Fill-15" fill="#FFFFFF" sketch:type="MSShapeGroup"></path>
            <path d="M61.791912,15.3461818 L61.770072,15.3236364 C61.511632,15.0727273 61.169472,14.9330909 60.804744,14.9330909 C60.429824,14.9330909 60.079656,15.0792727 59.819032,15.3469091 L57.540392,17.6567273 C57.008952,18.1985455 57.019144,19.0741818 57.56296,19.6036364 L57.585528,19.6247273 C57.842512,19.8770909 58.184672,20.016 58.5494,20.016 C58.92432,20.016 59.275216,19.8690909 59.53584,19.6029091 L61.81448,17.2923636 C62.346648,16.7498182 62.335,15.8763636 61.791912,15.3461818" id="Fill-16" fill="#FFFFFF" sketch:type="MSShapeGroup"></path>
            <path d="M64.5918,17.3250909 L64.568504,17.3025455 C64.31152,17.0509091 63.970088,16.9134545 63.60536,16.9134545 C63.229712,16.9134545 62.879544,17.0596364 62.61892,17.3250909 L60.34028,19.6363636 C59.808112,20.1781818 59.819032,21.0509091 60.362848,21.5832727 L60.385416,21.6036364 C60.643128,21.8552727 60.985288,21.9949091 61.34856,21.9949091 C61.724936,21.9949091 62.075104,21.848 62.335,21.5825455 L64.614368,19.2712727 C65.145808,18.7294545 65.135616,17.8552727 64.5918,17.3250909" id="Fill-17" fill="#FFFFFF" sketch:type="MSShapeGroup"></path>
            <path d="M66.670968,1.53236364 C65.96044,1.53236364 65.684528,1.8 65.681616,1.80290909 C62.643672,5.056 59.813936,7.20945455 59.489976,7.45309091 C58.976736,8.58763636 60.317712,9.52145455 60.494616,9.63709091 C60.860072,9.72654545 61.20296,9.76872727 61.514544,9.76872727 C62.029968,9.76872727 62.285496,9.64654545 62.28768,9.64509091 L62.318984,9.62909091 L62.365576,9.62909091 C63.159096,9.62909091 66.016496,7.25163636 67.050256,6.33381818 L67.126696,6.264 L67.211872,6.31054545 C69.827576,7.592 72.959432,10.8 74.42344,12.4007273 L74.42344,2.83709091 C73.801,3.00436364 73.246264,3.04509091 72.870616,3.04509091 C72.580144,3.04509091 72.395232,3.02472727 72.367568,3.02254545 C71.02368,2.89163636 69.360928,2.32072727 69.291768,2.29672727 L69.275752,2.28872727 C68.251456,1.78763636 67.378584,1.53236364 66.670968,1.53236364" id="Fill-18" fill="#FFFFFF" sketch:type="MSShapeGroup"></path>
            <path d="M76.44,0.727272727 L76.44,18.1818182 L81.884712,18.1818182 L88.82692,0.727272727 L76.44,0.727272727 L76.44,0.727272727 Z M79.28284,17.2189091 C78.792896,17.2189091 78.39468,16.8210909 78.39468,16.3323636 C78.39468,15.8421818 78.792896,15.4450909 79.28284,15.4450909 C79.773512,15.4443636 80.171,15.8414545 80.171,16.3323636 C80.171,16.8210909 79.773512,17.2189091 79.28284,17.2189091 L79.28284,17.2189091 Z" id="Fill-19" fill="#FFFFFF" sketch:type="MSShapeGroup"></path>
        </g>
    </g>
</svg>